<?xml version="1.0" encoding="UTF-8" standalone="no"?> <svg xmlns="http://www.w3.org/2000/svg" xmlns:xlink="http://www.w3.org/1999/xlink" xmlns:serif="http://www.serif.com/" width="100%" height="100%" viewBox="0 0 431 79" version="1.1" xml:space="preserve" style="fill-rule:evenodd;clip-rule:evenodd;stroke-linejoin:round;stroke-miterlimit:2;"> <g transform="matrix(5.55556,0,0,5.55556,-2798.56,-4441.21)"> <path d="M526.084,811.177C525.973,811.139 525.918,811.058 525.918,810.933L525.918,810.257C525.918,810.08 525.995,810.01 526.15,810.048C526.293,810.073 526.458,810.099 526.645,810.124C526.832,810.149 527.022,810.172 527.215,810.191C527.407,810.21 527.6,810.226 527.793,810.238C527.985,810.251 528.164,810.257 528.329,810.257C528.792,810.257 529.128,810.14 529.337,809.904C529.546,809.669 529.651,809.316 529.651,808.846C529.651,808.515 529.582,808.219 529.444,807.958C529.307,807.698 529.111,807.491 528.858,807.338L527.471,806.518C526.997,806.238 526.62,805.898 526.339,805.497C526.059,805.096 525.918,804.585 525.918,803.961C525.918,803.046 526.144,802.387 526.595,801.987C527.047,801.586 527.636,801.386 528.362,801.386C529.122,801.386 529.827,801.511 530.476,801.761C530.586,801.798 530.641,801.88 530.641,802.005L530.641,802.68C530.641,802.858 530.564,802.928 530.41,802.89C530.124,802.826 529.799,802.775 529.436,802.737C529.073,802.699 528.731,802.68 528.412,802.68C528.027,802.68 527.738,802.766 527.545,802.938C527.352,803.11 527.256,803.437 527.256,803.92C527.256,804.251 527.33,804.521 527.478,804.731C527.626,804.941 527.82,805.116 528.062,805.256L529.443,806.076C529.914,806.356 530.289,806.722 530.569,807.173C530.848,807.625 530.988,808.169 530.988,808.805C530.988,809.72 530.754,810.407 530.286,810.865C529.818,811.323 529.183,811.552 528.379,811.552C527.95,811.552 527.54,811.521 527.149,811.458C526.758,811.396 526.403,811.302 526.084,811.177Z" style="fill-rule:nonzero;"></path> </g> <g transform="matrix(5.55556,0,0,5.55556,-2798.56,-4441.87)"> <path d="M538.132,811.273C537.835,811.399 537.503,811.494 537.137,811.557C536.771,811.62 536.418,811.651 536.078,811.651C534.92,811.651 534.068,811.226 533.521,810.376C532.975,809.525 532.701,808.269 532.701,806.606L532.701,806.184C532.701,804.598 532.977,803.406 533.529,802.606C534.082,801.807 534.846,801.407 535.823,801.407C536.322,801.407 536.755,801.506 537.121,801.705C537.487,801.903 537.793,802.178 538.037,802.53C538.281,802.881 538.464,803.3 538.586,803.786C538.708,804.272 538.769,804.803 538.769,805.378C538.769,806.107 538.623,806.635 538.331,806.961C538.039,807.287 537.601,807.45 537.017,807.45L533.991,807.45C534.044,808.442 534.249,809.172 534.604,809.642C534.96,810.112 535.504,810.347 536.237,810.347C536.502,810.347 536.805,810.331 537.145,810.299C537.485,810.267 537.793,810.219 538.069,810.155C538.239,810.117 538.323,810.193 538.323,810.385L538.323,811.028C538.323,811.128 538.26,811.21 538.132,811.273ZM537.097,806.146C537.246,806.146 537.352,806.097 537.416,806C537.479,805.903 537.511,805.706 537.511,805.409C537.511,804.555 537.37,803.892 537.089,803.42C536.808,802.948 536.386,802.712 535.823,802.712C535.25,802.712 534.804,802.987 534.485,803.536C534.166,804.086 533.997,804.956 533.975,806.146L537.097,806.146Z" style="fill-rule:nonzero;"></path> </g> <g transform="matrix(5.55556,0,0,5.55556,-2798.56,-4441.21)"> <path d="M540.996,806.126C540.996,805.428 541.056,804.787 541.176,804.203C541.296,803.619 541.484,803.118 541.739,802.699C541.995,802.28 542.315,801.957 542.701,801.728C543.087,801.5 543.547,801.386 544.08,801.386C544.357,801.386 544.656,801.423 544.978,801.498C545.299,801.573 545.568,801.661 545.786,801.761C545.904,801.823 545.964,801.911 545.964,802.023L545.964,802.643C545.964,802.719 545.949,802.782 545.919,802.833C545.889,802.883 545.84,802.896 545.771,802.871C545.504,802.807 545.242,802.76 544.985,802.728C544.728,802.696 544.476,802.68 544.229,802.68C543.507,802.68 542.988,802.974 542.672,803.56C542.355,804.147 542.197,805.027 542.197,806.201L542.197,806.737C542.197,807.91 542.365,808.79 542.701,809.377C543.038,809.964 543.566,810.257 544.288,810.257C544.535,810.257 544.787,810.241 545.044,810.21C545.301,810.178 545.563,810.13 545.83,810.067C545.899,810.042 545.949,810.054 545.978,810.105C546.008,810.156 546.023,810.219 546.023,810.295L546.023,810.914C546.023,811.039 545.964,811.127 545.845,811.177C545.628,811.277 545.358,811.364 545.037,811.439C544.716,811.514 544.417,811.552 544.14,811.552C543.606,811.552 543.144,811.438 542.753,811.209C542.363,810.981 542.035,810.657 541.769,810.238C541.504,809.819 541.309,809.321 541.184,808.744C541.059,808.166 540.996,807.522 540.996,806.811L540.996,806.126Z" style="fill-rule:nonzero;"></path> </g> <g transform="matrix(5.55556,0,0,5.55556,-2798.56,-4440.36)"> <path d="M552.76,801.653C552.76,801.475 552.84,801.386 553.002,801.386L553.899,801.386C554.061,801.386 554.141,801.475 554.141,801.652L554.141,810.105C554.141,810.334 554.101,810.518 554.022,810.657C553.942,810.797 553.839,810.892 553.714,810.943C553.303,811.121 552.884,811.241 552.457,811.305C552.029,811.368 551.559,811.4 551.046,811.4C549.952,811.4 549.165,811.102 548.686,810.505C548.208,809.909 547.968,808.969 547.968,807.688L547.968,801.652C547.968,801.475 548.049,801.386 548.21,801.386L549.108,801.386C549.269,801.386 549.349,801.475 549.349,801.653L549.349,807.511C549.349,808.452 549.482,809.119 549.748,809.514C550.014,809.908 550.498,810.105 551.199,810.105C551.493,810.105 551.756,810.089 551.988,810.058C552.22,810.026 552.477,809.972 552.76,809.895L552.76,801.653Z" style="fill-rule:nonzero;"></path> </g> <g transform="matrix(5.55556,0,0,5.55556,-2798.56,-4442.05)"> <path d="M558.676,803.061L558.676,811.285C558.676,811.463 558.592,811.552 558.425,811.552L557.493,811.552C557.326,811.552 557.242,811.463 557.242,811.285L557.242,802.832C557.242,802.578 557.278,802.388 557.35,802.261C557.421,802.134 557.541,802.039 557.708,801.976C558.102,801.823 558.527,801.712 558.983,801.642C559.439,801.573 559.932,801.538 560.463,801.538C560.652,801.538 560.835,801.547 561.012,801.566C561.189,801.585 561.36,801.607 561.525,801.633C561.702,801.67 561.79,801.764 561.79,801.914L561.79,802.813C561.79,802.928 561.755,803.007 561.684,803.051C561.613,803.096 561.525,803.099 561.419,803.061C561.006,802.908 560.611,802.832 560.233,802.832C559.95,802.832 559.69,802.848 559.454,802.88C559.218,802.912 558.959,802.972 558.676,803.061Z" style="fill-rule:nonzero;"></path> </g> <g transform="matrix(5.55556,0,0,5.55556,-2798.56,-4440.36)"> <path d="M568.108,801.653C568.108,801.475 568.192,801.386 568.359,801.386L569.291,801.386C569.458,801.386 569.542,801.475 569.542,801.652L569.542,810.105C569.542,810.334 569.5,810.518 569.417,810.657C569.335,810.797 569.228,810.892 569.098,810.943C568.672,811.121 568.237,811.241 567.794,811.305C567.35,811.368 566.862,811.4 566.33,811.4C565.194,811.4 564.378,811.102 563.881,810.505C563.384,809.909 563.135,808.969 563.135,807.688L563.135,801.652C563.135,801.475 563.219,801.386 563.386,801.386L564.318,801.386C564.485,801.386 564.569,801.475 564.569,801.653L564.569,807.511C564.569,808.452 564.707,809.119 564.983,809.514C565.258,809.908 565.76,810.105 566.488,810.105C566.793,810.105 567.066,810.089 567.307,810.058C567.548,810.026 567.815,809.972 568.108,809.895L568.108,801.653Z" style="fill-rule:nonzero;"></path> </g> <g transform="matrix(5.55556,0,0,5.55556,-2798.56,-4441.21)"> <path d="M571.996,811.177C571.887,811.139 571.833,811.058 571.833,810.933L571.833,810.257C571.833,810.08 571.909,810.01 572.061,810.048C572.203,810.073 572.366,810.099 572.552,810.124C572.737,810.149 572.925,810.172 573.116,810.191C573.306,810.21 573.497,810.226 573.688,810.238C573.878,810.251 574.055,810.257 574.219,810.257C574.677,810.257 575.009,810.14 575.216,809.904C575.423,809.669 575.527,809.316 575.527,808.846C575.527,808.515 575.458,808.219 575.322,807.958C575.186,807.698 574.993,807.491 574.742,807.338L573.369,806.518C572.9,806.238 572.527,805.898 572.249,805.497C571.971,805.096 571.833,804.585 571.833,803.961C571.833,803.046 572.056,802.387 572.503,801.987C572.949,801.586 573.532,801.386 574.252,801.386C575.003,801.386 575.701,801.511 576.344,801.761C576.453,801.798 576.507,801.88 576.507,802.005L576.507,802.68C576.507,802.858 576.431,802.928 576.278,802.89C575.995,802.826 575.674,802.775 575.314,802.737C574.954,802.699 574.617,802.68 574.301,802.68C573.919,802.68 573.633,802.766 573.443,802.938C573.252,803.11 573.156,803.437 573.156,803.92C573.156,804.251 573.23,804.521 573.376,804.731C573.523,804.941 573.715,805.116 573.954,805.256L575.321,806.076C575.787,806.356 576.159,806.722 576.435,807.173C576.712,807.625 576.851,808.169 576.851,808.805C576.851,809.72 576.619,810.407 576.156,810.865C575.693,811.323 575.063,811.552 574.268,811.552C573.843,811.552 573.437,811.521 573.05,811.458C572.663,811.396 572.312,811.302 571.996,811.177Z" style="fill-rule:nonzero;"></path> </g> <g transform="matrix(5.55556,0,0,5.55556,-2798.56,-4460.15)"> <path d="M579.391,804.833L579.391,808.944L579.71,811.515L580.656,811.526L580.932,808.944L580.953,804.822L579.391,804.833Z" style="fill:rgb(0,97,170);"></path> </g> <g transform="matrix(-5.55556,0,0,5.55556,3647.8,-4396.09)"> <ellipse cx="580.172" cy="802.409" rx="1.031" ry="0.997" style="fill:rgb(0,97,170);"></ellipse> </g> <g transform="matrix(5.19386,1.9718,1.9718,-5.19386,-4212.94,3227.56)"> <path d="M502.773,812.291L508.909,812.291L510.469,808.181L505.094,806.141L502.773,812.291Z" style="fill:rgb(0,97,170);"></path> </g> <g transform="matrix(-5.19386,1.9718,1.9718,5.19386,1192.67,-5215.16)"> <path d="M516.079,808.177L522.215,808.177L523.775,812.287L518.4,814.327L516.079,808.177Z" style="fill:rgb(0,97,170);"></path> </g> <g transform="matrix(-5.55554,-0.0124908,-0.0124908,5.55554,2988.13,-4393.21)"> <path d="M517.021,799.423L522.803,799.423L522.793,803.911L516.997,806.047L517.021,799.423Z" style="fill:rgb(0,97,170);"></path> </g> <g transform="matrix(5.55554,-0.0124908,-0.0124908,-5.55554,-2788.52,4525.88)"> <path d="M503.757,806.047L509.539,806.047L509.529,801.559L503.733,799.423L503.757,806.047Z" style="fill:rgb(0,97,170);"></path> </g> <g transform="matrix(5.55556,0,0,5.55556,-2798.56,-4471.06)"> <rect x="510.35" y="806.89" width="5.817" height="4.532" style="fill:rgb(0,97,170);"></rect> </g> <g transform="matrix(5.55556,0,0,5.55556,-2798.56,-4411.42)"> <rect x="510.35" y="801.522" width="5.817" height="4.532" style="fill:rgb(0,97,170);"></rect> </g> </svg> 